/* XPM */
static char *result[] = {
/* columns rows colors chars-per-pixel */
"32 32 137 2 ",
"   c #020404",
".  c #0A0C0C",
"X  c #181A1A",
"o  c #1F2222",
"O  c #2D2F2F",
"+  c #2C363B",
"@  c #363A3C",
"#  c #383A3A",
"$  c #462720",
"%  c #60473B",
"&  c #3F3E41",
"*  c #1E4E5B",
"=  c #1F505E",
"-  c #3B4044",
";  c #314B54",
":  c #205463",
">  c #235B6B",
",  c #266677",
"<  c #286779",
"1  c #286A7C",
"2  c #414345",
"3  c #494B4F",
"4  c #5E564C",
"5  c #4A4C51",
"6  c #6F4A41",
"7  c #7E4F42",
"8  c #725042",
"9  c #7E5042",
"0  c #7E6451",
"q  c #7B7471",
"w  c #866C59",
"e  c #897763",
"r  c #95846F",
"t  c #9E866F",
"y  c #9B8A75",
"u  c #978B79",
"i  c #9D8E7C",
"p  c #A88870",
"a  c #A8967D",
"s  c #A5937A",
"d  c #296E81",
"f  c #396F80",
"g  c #2D7589",
"h  c #2E788E",
"j  c #357081",
"k  c #2E7B91",
"l  c #307F95",
"z  c #4B7782",
"x  c #437884",
"c  c #5E7E85",
"v  c #33859D",
"b  c #358BA4",
"n  c #3B8FA7",
"m  c #378FA9",
"M  c #3994AD",
"N  c #3A97B1",
"B  c #3B9BB6",
"V  c #3C9EBA",
"C  c #3DA2BE",
"Z  c #4E8898",
"A  c #75918E",
"S  c #679396",
"D  c #799D9C",
"F  c #519AAE",
"G  c #5C9BAD",
"H  c #4198B1",
"J  c #4A99B0",
"K  c #6695A3",
"L  c #46A4BF",
"P  c #4EA5BE",
"I  c #58A6BD",
"U  c #3FA4C0",
"Y  c #40A6C4",
"T  c #41A9C6",
"R  c #42ADCB",
"E  c #4CACC7",
"W  c #57ACC5",
"Q  c #5CADC3",
"!  c #43B0CF",
"~  c #4DB0CD",
"^  c #51B0CC",
"/  c #46B4D4",
"(  c #4AB4D3",
")  c #47BADB",
"_  c #48BCDE",
"`  c #6EAFC2",
"'  c #6DB0C4",
"]  c #74B1C2",
"[  c #47BFE1",
"{  c #49BFE1",
"}  c #4AC1E4",
"|  c #868D8E",
" . c #8B8C8C",
".. c #9B9C9C",
"X. c #B69A80",
"o. c #B6A791",
"O. c #9FA0A0",
"+. c #87AAB5",
"@. c #9FADB1",
"#. c #9CB3BA",
"$. c gray66",
"%. c #A2A3A3",
"&. c #B6AAA6",
"*. c #B7B8B8",
"=. c #BBBBBB",
"-. c #C2A68A",
";. c #C3AE90",
":. c #CAB495",
">. c #DCC3A2",
",. c #EACEAB",
"<. c #EED2AF",
"1. c #EFD5B0",
"2. c #F3D7B2",
"3. c #F6DBB6",
"4. c #FADEB7",
"5. c #85B7C4",
"6. c #8EB8C4",
"7. c #93BAC6",
"8. c #9CBEC8",
"9. c #ADC6CD",
"0. c #A2C1C9",
"q. c #B3C9CF",
"w. c #B7CDD3",
"e. c #BFD0D5",
"r. c #CBCBCB",
"t. c #D2DBDE",
"y. c #D2D2D2",
"u. c #D3DDE0",
"i. c #D7E0E3",
"p. c #DCE3E5",
"a. c #E2E4E4",
"s. c #EDEEEE",
"d. c #F1EFEE",
"f. c #F5F4F4",
"g. c #F9F7F6",
"h. c #FDFCFC",
"j. c None",
/* pixels */
"j.j.j.j.j.j.j.j.j.j.j.j.j.j.j.B B j.j.j.j.j.j.j.j.j.j.j.j.j.j.j.",
"j.j.j.j.j.j.j.j.j.j.j.j.j.j.m T T m j.j.j.j.j.j.j.j.j.j.j.j.j.j.",
"j.j.j.j.j.j.j.j.j.j.j.j.m B T R / T N b j.j.j.j.j.j.j.j.j.j.j.j.",
"j.j.j.j.j.l C T N 1 g 1 C } } } } _ 1 * v m j.j.j.j.j.j.j.j.j.j.",
"j.j.j.j.j./ } _ C N * 1 U } } } } { / b v ) M j.j.j.j.j.j.j.j.j.",
"j.j.j.j.j./ } C ! _ U _ ( ) } } } } ) ^ ^ ) ) l j.j.j.j.j.j.j.j.",
"j.j.j.j.j.T R Y } ) ' q.e.6.^ } { W 9.p.u.7.~ U j.j.j.j.j.j.j.j.",
"j.j.j.j.j.m C / [ ] s.h.s.g.q.~ ( q.h.y.y.g.7.T j.j.j.j.j.j.j.j.",
"j.j.j.j.j.j.m } ~ e.h. .O  .f.' W s.r.O X =.t.E j.j.j.j.j.j.j.j.",
"j.j.j.j.j.j.m } ~ t.f.@   # s.5.I a.*..   $.u.E B j.j.j.j.j.j.j.",
"j.j.j.j.j.j.M } ( 9.h.%.2 O.f.' / q.g.%...f.8.) } R j.j.j.j.j.j.",
"j.j.j.j.j.j.b { } Q t.h.g.f.#.F I c &.a.a.0.^ } } } C j.j.j.j.j.",
"j.j.j.j.j.j.j.) _ [ ^ 5.8.] L G +.| q @.K / } } } } / j.j.j.j.j.",
"j.j.j.j.j.j.j.b N } } [ ) _ } [ / ~ P W ~ } { } } T T j.j.j.j.j.",
"j.j.j.j.j.j.j.< ) T / } } } } } } } } } } } } } } C g j.j.j.j.j.",
"j.j.j.j.j.j.j.j.b v ) R ) } } } } } } } } } } R B { l j.j.j.j.j.",
"j.j.j.j.j.j.j.j.j.m T v _ } } } } } } } } } } { b h j.j.j.j.j.j.",
"j.j.j.j.j.j.j.j.j.j.: b R ) ) } } } } [ _ / ! V k j.j.j.j.j.j.j.",
"j.j.j.j.j.j.j.j.j.j.j.j.j.j.j.f Z J H h j.j.j.j.j.j.j.j.j.j.j.j.",
"j.j.j.j.j.j.j.j.j.j.j.j.j.j.j.0 9 9 6 j.j.j.j.j.j.j.j.j.j.j.j.j.",
"j.j.j.j.j.j.j.j.j.j.j.j.j.j.j.>.;.-.p e j.j.j.j.j.j.j.j.j.j.j.j.",
"j.j.j.j.j.j.j.j.j.j.j.j.j.j.j.>.>.2.2.s j.j.j.j.j.j.j.j.j.j.j.j.",
"j.j.j.j.j.j.j.j.j.j.j.j.j.j.j.:.;.<.2.a j.j.j.j.j.j.j.j.j.j.j.j.",
"j.j.j.j.j.j.j.j.j.j.j.j.j.j.j.% w <.3.t j.j.j.j.j.j.j.j.j.j.j.j.",
"j.j.j.j.j.j.j.j.j.j.j.j.j.j.j.$ 8 ,.4.X.j.j.j.j.j.j.j.j.j.j.j.j.",
"j.j.j.j.j.j.j.j.j.j.j.j.j.j.j.j z u o.i 4 j.j.j.j.j.j.j.j.j.j.j.",
"j.j.j.j.j.j.j.j.j.j.j.j.j.j.j.B m @ 2 & + j.j.j.j.j.j.j.j.j.j.j.",
"j.j.j.j.j.j.j.j.j.j.j.j.j.j.v < ; - 2 + j.j.j.j.j.j.j.j.j.j.j.j.",
"j.j.j.j.j.j.j.j.j.j.j.j.j.B N j.& 5 5 j.j.j.j.j.j.j.j.j.j.j.j.j.",
"j.j.j.j.j.j.j.j.j.j.j.j.j.j.j.j.r y y j.j.j.j.j.j.j.j.j.j.j.j.j.",
"j.j.j.j.j.j.j.j.j.j.j.j.j.j.j.j.S A D x j.j.j.j.j.j.j.j.j.j.j.j.",
"j.j.j.j.j.j.j.j.j.j.j.j.j.j.j.> v k m d j.j.j.j.j.j.j.j.j.j.j.j."
};
