/* XPM */
static char *b80f7b694f4642e1a10c7c1675c92167iiW1RnICnXsMDWUH[] = {
/* columns rows colors chars-per-pixel */
"32 32 246 2 ",
"   c #B9713F",
".  c #DB672D",
"X  c #D8732D",
"o  c #CC6B35",
"O  c #D6743A",
"+  c #C7772E",
"@  c #F96D2F",
"#  c #ED7C2E",
"$  c #E5643D",
"%  c #E87A36",
"&  c #FA6F32",
"*  c #C96C45",
"=  c #D56943",
"-  c #D57C46",
";  c #D66F50",
":  c #CB7751",
">  c #EA714C",
",  c #D7BA1B",
"<  c #ECBC1E",
"1  c #F8BE1F",
"2  c #E2AA19",
"3  c #E2802D",
"4  c #F9852B",
"5  c #FF903E",
"6  c #D0BD23",
"7  c #D6B739",
"8  c #D6AC3C",
"9  c #E4AB27",
"0  c #E9B92A",
"q  c #F4B927",
"w  c #EDAA37",
"e  c #F5AC33",
"r  c #E7BC3D",
"t  c #E6B93B",
"y  c #F0B632",
"u  c #F6BC33",
"i  c #F9BC32",
"p  c #FBBA39",
"a  c #FFC51A",
"s  c #FAC71A",
"d  c #FEC425",
"f  c #F9C627",
"g  c #EFD72F",
"h  c #F7D725",
"j  c #ECC43A",
"k  c #EDC93B",
"l  c #FBC331",
"z  c #FCCA32",
"x  c #FBC93D",
"c  c #FFD534",
"v  c #DD8543",
"b  c #D68155",
"n  c #DD905C",
"m  c #EA8858",
"M  c #E99D57",
"N  c #FF975C",
"B  c #EC8847",
"V  c #D8B744",
"C  c #D8B851",
"Z  c #DBB65B",
"A  c #D1AA4A",
"S  c #EBAB49",
"D  c #FEA547",
"F  c #E5B146",
"G  c #E3BB4D",
"H  c #E9B847",
"J  c #F6B84A",
"K  c #FFAE57",
"L  c #E4B656",
"P  c #F8BB54",
"I  c #FEBE5F",
"U  c #F6B758",
"Y  c #C68764",
"T  c #D58667",
"R  c #F5806E",
"E  c #E18C76",
"W  c #D9B568",
"Q  c #F8AF62",
"!  c #E0BE64",
"~  c #FFBC62",
"^  c #FCB969",
"/  c #E6BF72",
"(  c #FFBA72",
")  c #FCBF7E",
"_  c #EBA676",
"`  c #DEC84B",
"'  c #DBC65A",
"]  c #CAC545",
"[  c #E4C546",
"{  c #F3C44D",
"}  c #FDCB4C",
"|  c #F9C646",
" . c #F8D34D",
".. c #E6C759",
"X. c #FEC552",
"o. c #FFC954",
"O. c #FAC45C",
"+. c #F9C856",
"@. c #FFD25A",
"#. c #EADA51",
"$. c #F7E357",
"%. c #EAE75A",
"&. c #D8CC6A",
"*. c #E9CC66",
"=. c #FEC562",
"-. c #FAC86A",
";. c #E4D960",
":. c #FFD465",
">. c #FFD36A",
",. c #FFD96C",
"<. c #F8D564",
"1. c #EBCC76",
"2. c #E8C879",
"3. c #FFCE74",
"4. c #FAC87B",
"5. c #E8D67A",
"6. c #FDD474",
"7. c #FFDB72",
"8. c #FFD47E",
"9. c #FFD97B",
"0. c #F6D871",
"q. c #FFE36A",
"w. c #FEE57C",
"e. c #FAE67B",
"r. c #E5E36C",
"t. c #C99A80",
"y. c #EE9981",
"u. c #DFBB99",
"i. c #F7AD8E",
"p. c #F7B798",
"a. c #EFAD8A",
"s. c #E7BAAB",
"d. c #FECC89",
"f. c #FFD484",
"g. c #FFDE81",
"h. c #FED38E",
"j. c #FFDA8C",
"k. c #F2DC88",
"l. c #ECCF93",
"z. c #EED092",
"x. c #FFDA94",
"c. c #FFDC9B",
"v. c #F5D799",
"b. c #F0CA8B",
"n. c #FFEB85",
"m. c #FFE58B",
"M. c #F0EA8C",
"N. c #FFF38C",
"B. c #FFE699",
"V. c #FFEE9C",
"C. c #FAE695",
"Z. c #FFF491",
"A. c #FFF59A",
"S. c #FAFD96",
"D. c #ECE58E",
"F. c #FEC6A4",
"G. c #FAD5A8",
"H. c #FBCCB9",
"J. c #FEDAB4",
"K. c #F8D4BA",
"L. c #FFE6A1",
"P. c #FFE4AC",
"I. c #FFEAA3",
"U. c #E1EFBC",
"Y. c #FEECB1",
"T. c #F9E4BA",
"R. c #FDF2B6",
"E. c #FFDCC9",
"W. c #FFD9C0",
"Q. c #FED5D1",
"!. c #DFE4DE",
"~. c #D8F5DB",
"^. c #FDECC2",
"/. c #FFE5C9",
"(. c #FFEBCC",
"). c #FFF5CD",
"_. c #FFFFC9",
"`. c #FDF5C4",
"'. c #ECEBDE",
"]. c #EDE7DB",
"[. c #FFEBD4",
"{. c #FEEBDC",
"}. c #F3EADB",
"|. c #F4F1D7",
" X c #FDF3D6",
".X c #FEF5DD",
"XX c #FEFCDB",
"oX c #F4F6DC",
"OX c #EFF8D9",
"+X c #EADDEE",
"@X c #FADCE8",
"#X c #DBEDE1",
"$X c #DEF6EA",
"%X c #DFF7F5",
"&X c #DCEDF7",
"*X c #ECEDE4",
"=X c #ECEBED",
"-X c #E4E9E8",
";X c #FEE6E4",
":X c #F4ECE4",
">X c #FFEDE3",
",X c #F5E7EB",
"<X c #F4EEEB",
"1X c #FDEDEC",
"2X c #FEE4ED",
"3X c #ECF2E4",
"4X c #ECFBE3",
"5X c #E2F4ED",
"6X c #EBF2EC",
"7X c #E3F9EC",
"8X c #EEFCEE",
"9X c #E5F0E2",
"0X c #F3F4E4",
"qX c #FEF3E3",
"wX c #FEFBE3",
"eX c #F3F4EC",
"rX c #FDF4EB",
"tX c #F4FAEB",
"yX c #FDFCEC",
"uX c #F2FAE5",
"iX c #EBE6F4",
"pX c #EDEEF3",
"aX c #EDE6FD",
"sX c #ECEBFC",
"dX c #E3ECF7",
"fX c #F4EEF4",
"gX c #FDECF4",
"hX c #F3EDFC",
"jX c #FCECFC",
"kX c #F7E5F4",
"lX c #E5F4F5",
"zX c #EDF3F5",
"xX c #E6FEF2",
"cX c #ECFBF3",
"vX c #EDF4FC",
"bX c #E6FDFF",
"nX c #ECFEFD",
"mX c #E4F1FB",
"MX c #F4F4F4",
"NX c #FDF4F4",
"BX c #F3FCF4",
"VX c #FDFCF4",
"CX c #F4F4FC",
"ZX c #FCF4FD",
"AX c #F4FDFD",
"SX c #FDFCFD",
/* pixels */
"@XgXSXBX5X9XNXSXZXjXhXAXnX$X7XtXwX.XqXtXBX8XlXmXAXvX=XMXSXNX2X@X",
"gXgXMXcXcXcXZXZXgXkXCXAXBX9X3XyX.X/.E.{.qXqXrXSXSXvX-XpXSXSXNX,X",
"SXNX=X6XBXAXCXpXMXSXAX-X*XyXqXE.p.y.E T Y Y u.[.{.NXSXCXlXlXcXAX",
"SXMXMXMXCXAXvXlXAXAXMX].{.qXH.E ; = = m _ ) d.v.T.qXSXAXdX%XxXcX",
"6XBXSXZXMXpXvXnXxX#X'.wX[.i.; * - M 4.f.g.w.w.w.V.^.<XvXAXAXxX~.",
"$XcXSXZXhXhXnXAX7X4X.X/.i.* = m ( 8.9.=.F t j  .0.C.}.jXZXAX7X~.",
"xXcXMXjXZXZXnXcX4XyX(._ * O N ( 8.I S J O.X.l 0 j 0./.jXjXaXzXBX",
"BXBX=XkXZXSXzX!.yX(.p.b o B ^ 3.U H P :.=.w q c < { G.;XjXjXZXSX",
"BX!.SXZX+XZXSXrX.XF.* B X ~ 6.F ..<.8 n.^ 6. .d s 0 h.{.gXZXZXZX",
"-X-XSXZXhXgX1XrXW.T > % K >.{ V ' e...N.h.B.q.z h , 4.(.NXZXhXiX",
"*XVXfXCXSXgX;X{.i.o % 5 >.X.7 ] &.S.r.e.G.Y.w.k h , 1.^.qXZXsXvX",
"VXSX-X=XSXNX>XH.b O # I X.9 [ ;.k.A.;.' v.G.8.[ g 6 5.`.|.6XvXAX",
"VXVX6XzX<XVXqXy.O % D :.p 9 $.w.c.x.J F F.F.d.O.x 7 b.).0XcXnXnX",
"'.0XAXAX*XrXE.Y v 3 >.| i y } O.P.d.{ X.c.J.c.9.{ 7 l. XyXAXlX&X",
"*X3XAXBXeX{.s.: v D :.i u x e S Y.v.#.$.j.P.L.m.[ C G.qXrXVXfXiX",
"VXtXcX5XSX>Xy.- + 7.p l l | e U R.D.%.$.*.x.x.j.C &.^.qX}.1XZXSX",
"VXrXlX%XvX;XR $ M ,.q d s f i t A.M.` 7 G m.j.d.A k.`. X:XMXZXSX",
";X1XnXbXnXQ.> @ Q ,.q a s f u t Z.5.' G :.,.3.-.W v.`.oXBXSXhXiX",
";XNXnXbXcXH.$ @ -.@.1 a s f y F Z.5.1.-.w.@.} 7 1.Y..XMXSXAXhXiX",
"NXSXlX%XBXK.. & >.| d a d l w H Z.B.h.f.,.} j 7 C.).VXCXvXvXCXSX",
"ZXSXlX5XtXG.. 4 ,.| d a d i J ~ B.I.4.m.+.r H *.R.yXSXCXzXzXZXSX",
"1XSXAXnXuXG.X 4 7.| d a d q o.6.j.x.L n.G V ! Y.wXZXsXsXAXBX<X<X",
",XNXAXAXeXK.- 3 9.@.l d d 9 @.=.4.f.V :.L / J.rXSXCXdXvXAXBX}.|.",
"ZXfXvXAXMX[.n O f.-.p z z 2 } w U g.G L W G.NXgXZXCXvXvXAXeX|.XX",
"SXSXzX-XCXNXF.  a.x.@.0 z x u | { L Z 2.J.>XgXjX=XMXAXAXsXpXwXXX",
"0XMXAXSXZXgXE.p.t.G.9.H r k r H G Z b.J.>XNXZXZXeXMXAXAXCXCXrXwX",
"'.*XSXSXhXkX>X.Xs.K.x.0.<.` 7 *.1.z.T.rXSX1X:XeXBXBXeXBXBXSXhXaX",
"yX*XfXZXhXjX>XrXZX;XT.L.V.k.5.C.P.(.rXSXNX<X*X0XBXBXuXuXtXMXhXsX",
"VXBXfXCXZXZXVX:XZXZXqXT.R._._.^.{.rXNX<X*XtXBXBXzXMXtXoXoXeXCXZX",
"tXeXZXZXhXZXBX6XhXZXVXoX|.wXwX:XgXZXMX=X3XBXAXzXzXMXtX0X0XeXCXSX",
"9X6XSXZXhX=X4X8XCXaXCXSXSX-XiXZXSXCXMXBXBXvXlXzXCXMXMXCXZXCXuX4X",
"6X6XSXSXhX-X4XBXCXsXCXAXAXCXAXSXSXpX5XAXAXmXdXAXSXMXhXhXZXSXOXU."
};
