/* XPM */
static char *b4b8ab84cdd64869e4516048d687e6d3eJLmGRS3i4MzvVLy[] = {
/* columns rows colors chars-per-pixel */
"32 32 193 2 ",
"   c #473B3D",
".  c #1E4844",
"X  c #1F4948",
"o  c #144E5A",
"O  c #0E5E5C",
"+  c #0C555B",
"@  c #1C5955",
"#  c #11545C",
"$  c #1A5755",
"%  c #2C4946",
"&  c #2D4D4B",
"*  c #274947",
"=  c #354D4A",
"-  c #25514E",
";  c #29524E",
":  c #32514E",
">  c #2C4B52",
",  c #314F57",
"<  c #235352",
"1  c #2B5553",
"2  c #2C535A",
"3  c #255F59",
"4  c #2C5C5A",
"5  c #285B57",
"6  c #3C5552",
"7  c #345956",
"8  c #395956",
"9  c #355C5A",
"0  c #385A56",
"q  c #1A645E",
"w  c #2F615E",
"e  c #34625C",
"r  c #39625E",
"t  c #0F5F60",
"y  c #1B5F6B",
"u  c #185F64",
"i  c #235A64",
"p  c #235F6D",
"a  c #345E64",
"s  c #355F6B",
"d  c #0F6363",
"f  c #156265",
"g  c #1B6466",
"h  c #1C6A65",
"j  c #1A666A",
"k  c #1C696B",
"l  c #166569",
"z  c #1A706F",
"x  c #1F6871",
"c  c #266663",
"v  c #2C6464",
"b  c #236B66",
"n  c #21606F",
"m  c #2C666A",
"M  c #246D6A",
"N  c #2B686D",
"B  c #346362",
"V  c #306867",
"C  c #34626B",
"Z  c #316B6B",
"A  c #3A6966",
"S  c #20706D",
"D  c #36716F",
"F  c #38736D",
"G  c #216471",
"H  c #266874",
"J  c #376E71",
"K  c #2F7074",
"L  c #347A75",
"P  c #37787C",
"I  c #3C7C7B",
"U  c #377677",
"Y  c #4F4345",
"T  c #4E4F54",
"R  c #524E53",
"E  c #5C4E54",
"W  c #44565A",
"Q  c #495758",
"!  c #475555",
"~  c #535055",
"^  c #545359",
"/  c #5E5158",
"(  c #545B5D",
")  c #58595E",
"_  c #5C5054",
"`  c #66575D",
"'  c #64585C",
"]  c #41615E",
"[  c #4C5D61",
"{  c #436164",
"}  c #48676C",
"|  c #40686A",
" . c #4D6669",
".. c #41757C",
"X. c #477F7C",
"o. c #546668",
"O. c #646061",
"+. c #6B6768",
"@. c #776D6E",
"#. c #38807F",
"$. c #4A817E",
"%. c #3C7580",
"&. c #407582",
"*. c #959F9E",
"=. c #8DADA9",
"-. c #94A4A2",
";. c #92AEAF",
":. c #9BAEAC",
">. c #99A2A1",
",. c #95B6AF",
"<. c #99B2AD",
"1. c #96B6B2",
"2. c #98B5B1",
"3. c #96B8B7",
"4. c #9BBBB9",
"5. c #99B9B7",
"6. c #ACA6A8",
"7. c #A9A9AA",
"8. c #A0AFB6",
"9. c #A3B4BA",
"0. c #A3BABC",
"q. c #A8B6B6",
"w. c #CBB6BB",
"e. c #CBBABE",
"r. c #9DC3BD",
"t. c #D2BDC2",
"y. c #C9CFCF",
"u. c #CFC3C5",
"i. c #D3C7C9",
"p. c #DCCBCF",
"a. c #D7C4C8",
"s. c #CFD4D7",
"d. c #C7D9D9",
"f. c #CCDFDD",
"g. c #D5D6D8",
"h. c #D1DEDD",
"j. c #D4D6D5",
"k. c #D1DFE0",
"l. c #CFE1E1",
"z. c #DDE9E7",
"x. c #DBEDEB",
"c. c #D6E7E6",
"v. c #DDF3EE",
"b. c #DFF3F1",
"n. c #DEF9F2",
"m. c #E9E7E8",
"M. c #E6ECEC",
"N. c #EDEBEC",
"B. c #F2ECED",
"V. c #E3F3EF",
"C. c #F6F4ED",
"Z. c #E5EDF0",
"A. c #E4F2F1",
"S. c #ECF2F3",
"D. c #E2FBF5",
"F. c #EBFAF4",
"G. c #F4F4F4",
"H. c #FBF5F4",
"J. c #F4F9F5",
"K. c #FDFCF6",
"L. c #F6F7F9",
"P. c #FAF6F9",
"I. c #F6FFFD",
"U. c #FFFDFB",
"Y. c #FFFEFB",
"T. c #FEFFFB",
"R. c #FFFFFB",
"E. c #FFFFFA",
"W. c #FDFEFA",
"Q. c #FFFBFD",
"!. c #FFFBFF",
"~. c #FDFBFD",
"^. c #FBFFFD",
"/. c #F8FFFF",
"(. c #F9FFFF",
"). c #F8FEFE",
"_. c #FBFFFF",
"`. c #F9FFFD",
"'. c #FFFCFD",
"]. c #FFFDFD",
"[. c #FFFEFD",
"{. c #FEFFFD",
"}. c #FFFFFD",
"|. c #FDFDFF",
" X c #FFFCFF",
".X c #FFFDFF",
"XX c #FEFCFF",
"oX c #FCFFFF",
"OX c #FFFEFF",
"+X c #FEFFFF",
"@X c white",
"#X c #FCFFFD",
"$X c #FEFEFD",
/* pixels */
"/./././././.+X+X+X+XU.U.U.H.C.U.U.G.P.+X+X+X+X+X+X+X/./././.^.^.",
"/./././.+X+X+X+XG.~.+XU.U.U.U.U.+X+X+X+X+X+X+X+X+X+X+X+X/./.^.^.",
"+X+X+X+X+X+X+X+X+X+X+XU.H.P.U.G.B.!.+X+X+X+X+X!.+X+X+X+X+X+XU.U.",
"+X+X+X+X+X+X+X+X+XP.P.U.K.+X+X+X+X+X+XG.P.P.P.+X+X+X+X+X+X+XU.U.",
"+X+X+X+X!.!.+X+X+XP.P.+X+XJ.S.M.S.S.S.L.~.G.P.+X+X+X!.!.+X+X+X+X",
"+X+X+X+X!.!.!.!.P.N.j.y.h.h.f.x.l.d.k.c.s.j.m.B.+X!.!.!.!.+X+X+X",
"+X+X+X+X!.!.!.+X+XS.>.Q 6 6 & 8 ] : 6 = ! *.G.+X+X+X+X!.!.+X+X+X",
"+X+X+X+X+X+X+X+XL.I.-.% * 7 ; 4 1 ; 9 : = -.I.G.+X+X+X+X+X+X+X+X",
"/.+X+X+X+X+X+X+XI.A.0.& 1 w $ c @ 3 e . : <.V.I.+XU.U.U.+X+X+X/.",
"/././.+X+X+X+X/.I.b.4.; 4 D @ b q c F < e 1.V.`.^.U.U.U.+X/././.",
"I.I././.+X+X+X/.I.v.1.< V I h k q M U 3 r 1.v.I.^.U.U.U././.I.I.",
"I.I./.+X+X+X+X+XI.x.1.< Z I g j O h L 3 e ,.v.`.U.U.U.U.+X/.I.I.",
"/././.+X+X+X+X+X/.x.5.1 m P f g f M I 3 r 2.V.^.U.U.U.U.+X/./.I.",
"/./.+X+X+X+X!.+X+XZ.0.2 C P y k g M I 4 9 <.M.K.U.U.U.U.+X+X/./.",
"+X+X+X+X!.!.!.!.+XZ.9., C %.y G g M U 4 { 8.M.H.U.U.U.~.+X+X+X+X",
"+X+X+X+X!.!.!.!.+XM.8.> s &.p G u N ..B } 0.G.~.U.U.~.U.+X+X+X/.",
"/.+X+X+XU.U.U.+X!.Z.9.> a &.p n p p ..a { 9.S.!.U.U.U.U.+X/./.I.",
"/.+X+X+XU.U.U.+X/.A.0.> < i # H G o i 2 } 9.A.G.+XU.U.U.+X/./.I.",
"+X+X+X+XU.U.U.+X/.x.4.a J K + j x # N v | ;.x./.+XU.U.U.+X+X/./.",
"+X+X+X+XU.U.U.+XI.c.3.B I #.t f l u K v B =.v.I.+XU.U.U.+X+X+X+X",
"+X+X+X+XU.U.U./.I.n.r.< $ b O z d O b $ w 4.D.F./.U.U.U.+X+X+X+X",
"+X+X+X+XU.U.U.^.I.D.r.- 3 L h S h M L @ 4 5.D.F./.U.U.U.+X+X+X+X",
"+X+X+X+XU.U.U.U./.x.2.1 A X.c c c Z $.e 7 =.A./.+XU.U.U.+X+X+X+X",
"+X+X+X+XU.U.U.+X/.z.:.% & 1 X B 1 - 7 & 6 :.V./.+XU.U.U.+X+X+X+X",
"+X+X+X+X+X+X+X+X~.L.7.( ! [ W [  .W o.Q ( q.G.U.+X+X+X+X+X+X+X+X",
"/./.+X+X+X+X+X+X+X6.O.R ~ R ^ ) ) T ^ ~ ~ +.6.+X+X+X+X+X+X+X+X+X",
"/././.+X+X+X+X+XB.@.  ` E E ` E E / E _ ' Y @.H.+X+X+X+X+X+X+X/.",
"/././.+X+X+X+X+X+Xi.e.p.e.t.p.w.w.a.a.e.p.u.i.+X+X+X+X+X+X+X+X+X",
"+X+X+X+X+X+X+X+X~.~.U.~.H.~.~.H.~.~.~.H.~.U.H.~.+X+X+X+X+X+X+X+X",
"+X+X+X+X+X+X+X+XG.+XU.P.U.U.P.K.U.P.U.U.P.U.U.G.+X+X+X+X+X+X+X+X",
"+X+X+X+X+X+X+X+X+X+XK.U.U.K.H.K.U.C.K.K.K.U.^.+X+X+X+X+X+X+X+X+X",
"+X+X+X+X+X+X+X+X+XJ.U.U.K.U.K.K.K.K.^.J.^.^.J./.+X+X+X+X+X+X!.!."
};
