/* XPM */
static char *_6c46cdcaf004708dc1d33a080962d2fLwoGWIa6QurHEvhl[] = {
/* columns rows colors chars-per-pixel */
"32 32 130 2 ",
"   c #262626",
".  c #252728",
"X  c #292729",
"o  c #272828",
"O  c #2C2C2D",
"+  c #2E302F",
"@  c #2D2E30",
"#  c #2F3131",
"$  c #333334",
"%  c #363837",
"&  c #343739",
"*  c #363939",
"=  c #3B3C3C",
"-  c #3E403F",
";  c #3D3F40",
":  c #3E4142",
">  c #3D4549",
",  c #434444",
"<  c #434847",
"1  c #484847",
"2  c #434649",
"3  c #454A4B",
"4  c #484C4D",
"5  c #4B4C4C",
"6  c #4B4D4C",
"7  c #4B4C4D",
"8  c #4A4F4D",
"9  c #484D4E",
"0  c #4A4D4F",
"q  c #4C4C4C",
"w  c gray30",
"e  c #4D4E4F",
"r  c #4E4E4E",
"t  c #4E4F4E",
"y  c gray31",
"u  c #4A4B4B",
"i  c #474D50",
"p  c #4B4E54",
"a  c #494E51",
"s  c #485050",
"d  c #4B5050",
"f  c #4B5051",
"g  c #4B5053",
"h  c #4C5053",
"j  c #4B5453",
"k  c #4D5155",
"l  c #4D5456",
"z  c #4D5253",
"x  c #505050",
"c  c #515050",
"v  c #515151",
"b  c #535353",
"n  c #515254",
"m  c #505455",
"M  c #535555",
"N  c gray33",
"B  c #555555",
"V  c #545656",
"C  c #555657",
"Z  c #555757",
"A  c #565656",
"S  c gray34",
"D  c #535454",
"F  c #515558",
"G  c #525659",
"H  c #535658",
"J  c #575858",
"K  c #57595A",
"L  c #565A5B",
"P  c #545D5E",
"I  c #575C5E",
"U  c #54595B",
"Y  c #585858",
"T  c gray35",
"R  c #5A5A5A",
"E  c #5B5B5B",
"W  c #595F5F",
"Q  c gray36",
"!  c #5D5D5D",
"~  c #5F5D5E",
"^  c #5E5F5F",
"/  c #5F5F5F",
"(  c #5B5B5C",
")  c #5B5E61",
"_  c #5F6160",
"`  c #5D6162",
"'  c #5C6363",
"]  c #5F6364",
"[  c #5C6565",
"{  c #5C6162",
"}  c #606060",
"|  c gray38",
" . c #626262",
".. c gray39",
"X. c #636364",
"o. c #616465",
"O. c #616767",
"+. c #636667",
"@. c #646464",
"#. c #656564",
"$. c #656565",
"%. c #666565",
"&. c #646566",
"*. c gray40",
"=. c #676767",
"-. c #636364",
";. c #676867",
":. c #636768",
">. c #666769",
",. c #616769",
"<. c #646869",
"1. c #676A6C",
"2. c #666F6F",
"3. c #646B6E",
"4. c #686868",
"5. c DimGray",
"6. c #6A6A6A",
"7. c gray42",
"8. c #6C6C6C",
"9. c #6D6C6C",
"0. c gray43",
"q. c #6C6C6C",
"w. c #6A7070",
"e. c #6C7272",
"r. c gray44",
"t. c #717171",
"y. c #717272",
"u. c #727272",
"i. c #737272",
"p. c gray46",
/* pixels */
"$ O o O O O O O X O = = = & & & O O & * = = 1 = O o O o % * * * ",
">.3 , t.0.} } #.* : w.w.' W +.:.$ 2 t.0.;.} } 6.u , / $ #.+.} #.",
"u = N t.N c N E , u j 9 < 3 3 < # L / c r r r c 1 u c = N u r u ",
"3 * r #.1 u r c * 1 f < 3 9 9 2 # n N u u u r c , 1 r = r r r u ",
"* $ = r , , , 1 O O & $ = : , % o = 1 = * * ; = $ O % X % & = = ",
"* = = = ; $ o % r r 1 , u $ X , r r c r 9 % . ; z G f G 9 $   % ",
"6.X.+.+.1.4 $ t.0.0.#.E E * r t.} E N L ' u * 2.L l f l p & 1 t.",
"r 1 3 < 3 - = } 1 u c u u % c } u 1 1 1 1 , : [ > 3 f < 3 & r #.",
"u < = = , % $ 1 1 1 r u , O , u u u 1 1 1 = = L 2 3 f 9 < $ $ 9 ",
"% O X X $ % X O $ O O % % $ O $ $ X X O $ O X @ O $ $ O # X O * ",
"0.c % #.} #.6.#./ $ & >.' ] L m 4 O % } #.} / N N r o , } } #.6.",
"c 1 = } u u r r u $ ; 9 < 2 < < 2 $ 1 N u u c r r u $ E 6.E r r ",
"1 * % u u u u 1 , % , 9 3 4 9 3 = $ 1 u u 1 1 u u u $ N c 1 q u ",
"$ $ o O $ $ $ $ O X O * % $ % $ # X X $ % % % % % % O $ % % * % ",
"E $ % * N m N N / = E #.6./ X , X.& r / } } } } r X } 6.#.#.6.#.",
"r = , r z 9 3 3 3 : E c N c + z L & E } E N x x 1 $ 0.} c c c N ",
", = , = 3 9 9 2 , * c r u 1 O 9 9 $ N r u r r 1 = O E r u u u u ",
"$ O O O % % % * % $ * * * % o O $ o % $ $ $ % O O X = % % * % % ",
"' / ( W z % } #.#.#.6.} / O X 1 u u r N E , O W ' W ) ( G N % E ",
"L 9 a l - 3 0.E c N E r r % , p.} N N E E u = e.L 3 a 3 3 3 * 6.",
"9 3 9 9 & , N 1 1 r r u u O r #.r u r r u , ; L 2 9 9 2 2 < * N ",
", - 1 3 = O , , 1 r u , * X 1 r 1 u c r 1 = @ & , 3 3 3 , = O = ",
", 1 % % = , 1 u , X $ * = = & % % $ O $ * = , * * * $ $ & & = = ",
"/ / * } 0.#.6.0.N % X.X.:.[ { L ) , * 6.#./ #.0.0.0.1 9 q.' } / ",
"1 u * / r u u r 1 = a 2 3 2 2 2 3 * r } u 1 u z c c * m X.1 u u ",
"1 * % N u 1 1 u = * 2 , 1 2 2 2 < $ , r 1 , , , 1 u * r N 1 , 1 ",
"O O X O + % % * % $ * % $ $ $ O O $ O + O O $ O O O X O $ O $ O ",
"E } -.r $ } q.6.#.6.0.6.% 1 $ , } 6.#.} @ < 1.{ L ) ) ( . ; #.} ",
"N N E r = 0.E c r N N N = c % #.#.N c r @ G ' f 3 l U l O / / N ",
"r u u , , / r u u r r u = c $ E r u u 1 # G i < 2 3 3 < @ W u r ",
"= = = % O = , * * = , , % = O 1 , , , * O 3 3 : : : < = X , , , ",
"o o $ * = , 1 , X o X X X o o o X X X % $ # $ O . X O $ % # X o "
};
