/* XPM */
static char *ea32c6e46a6d4dfa81b677433e63ed88eoiQmDTAiU6XGCuf[] = {
/* columns rows colors chars-per-pixel */
"32 32 142 2 ",
"   c #1D3E73",
".  c #203E74",
"X  c #1B467C",
"o  c #1C4C84",
"O  c #1B4E89",
"+  c #1C5286",
"@  c #1D528B",
"#  c #1D5592",
"$  c #1E5A93",
"%  c #1E5B9B",
"&  c #214D83",
"*  c #214F88",
"=  c #235385",
"-  c #22538C",
";  c #2B568A",
":  c #24598E",
">  c #28598F",
",  c #30558B",
"<  c #305D8F",
"1  c #215691",
"2  c #245B94",
"3  c #295D93",
"4  c #245E9B",
"5  c #2A5D99",
"6  c #315E96",
"7  c #1E629C",
"8  c #2C6495",
"9  c #2A6897",
"0  c #25629D",
"q  c #2A649C",
"w  c #27689F",
"e  c #2C699E",
"r  c #336196",
"t  c #326698",
"y  c #326A9D",
"u  c #2565A3",
"i  c #2A66A2",
"p  c #2669A4",
"a  c #2B6BA3",
"s  c #2466A9",
"d  c #2967A8",
"f  c #256BAB",
"g  c #2B6DAA",
"h  c #326DA3",
"j  c #396FA2",
"k  c #316EAA",
"l  c #2D71A5",
"z  c #2673AC",
"x  c #2C73AC",
"c  c #2F79AE",
"v  c #3371A5",
"b  c #3B72A4",
"n  c #3374AB",
"m  c #3976A9",
"M  c #337AAD",
"N  c #3B7AAD",
"B  c #256EB1",
"V  c #286FB5",
"C  c #2672B3",
"Z  c #2C75B3",
"A  c #2D7AB4",
"S  c #2677B9",
"D  c #2C76B9",
"F  c #2679BC",
"G  c #2C7BBB",
"H  c #3376B2",
"J  c #337BB4",
"K  c #3A7CB4",
"L  c #327DBB",
"P  c #397EB9",
"I  c #277EC1",
"U  c #2C7EC2",
"Y  c #317FC0",
"T  c #2F80B7",
"R  c #2F81BE",
"E  c #3382B6",
"W  c #3B81B3",
"Q  c #3482BD",
"!  c #3D87BA",
"~  c #3982BD",
"^  c #3B85BD",
"/  c #3A84BD",
"(  c #3E88BB",
")  c #3F89BC",
"_  c #4481B8",
"`  c #2782C6",
"'  c #2C83C3",
"]  c #2C84C3",
"[  c #2983C4",
"{  c #2F87C4",
"}  c #2F87C5",
"|  c #2E83C2",
" . c #2C86CC",
".. c #3680C0",
"X. c #3185C1",
"o. c #3284C3",
"O. c #3787C0",
"+. c #3384C2",
"@. c #3B87C0",
"#. c #3C87C2",
"$. c #3688C0",
"%. c #3589C4",
"&. c #3789C5",
"*. c #378BC4",
"=. c #3589C7",
"-. c #378BC7",
";. c #378EC5",
":. c #3489C6",
">. c #3988C1",
",. c #3B88C1",
"<. c #3B89C3",
"1. c #3D89C1",
"2. c #3C8CC2",
"3. c #388CC5",
"4. c #388FC7",
"5. c #398FC7",
"6. c #3E8FC5",
"7. c #398AC6",
"8. c #3189C8",
"9. c #348CCA",
"0. c #358CCC",
"q. c #388BC9",
"w. c #388DC8",
"e. c #398DC9",
"r. c #398EC8",
"t. c #388DCB",
"y. c #3B8ECA",
"u. c #3A8EC9",
"i. c #3E90C6",
"p. c #3E93CB",
"a. c #438EC3",
"s. c #418EC5",
"d. c #428CC9",
"f. c #4090C6",
"g. c #4191C8",
"h. c #4094CA",
"j. c #4295CB",
"k. c #4295CC",
"l. c #4696CF",
"z. c #4798D0",
"x. c #4698D2",
"c. c #4898D0",
/* pixels */
"D D > a z x A x x E / E E H n N m N N _ K v v m K H H 3 a x C C ",
"3 f f p p u z Z A H x x M 8 v v v v b < b h a a q a x a a a : i ",
"e [ ` ] ' G 8.9.t.t.&.&.i.y 1.&.5.p.>.h d.&.q.X.Z G { { X.J 3 D ",
"9 Z Z M M a Z M M M n M N y v m m m m e m M m n e a m n n n 3 e ",
"s s + p x x Z x 0 H n M P P H H H K P E J l a n n k v , e Z A x ",
"F D + z G L Q H p ~ E ^ >.>.O.$.Q ;.5.t.5.J x J K H M ; l R R Q ",
"u 0 + 0 u d a a 0 a y y y t t y y j b b m h e e r 6 8 3 8 t 8 e ",
"u d n a a a H J J H e m H a W ! ) ( W K a.f.g.6.M M ~ ~ P Z 2 g ",
"d g Z x g g ..L Y P a n L x s.j.k.j.2.@.x.x.c.l./ / t.t.&.R i H ",
"4 0 q q 0 q h h h h q e a a n M M M M v m m m m v y n v h h e 3 ",
"C C p l l x n n a H J J K H H L P J P H H J L D H g D H i P Q L ",
"Z C p Z A Q Q J l K P K K H H ^ ^ @.^ K J Q Q Q J x L A 0 Z T A ",
"0 u u p g a x x a a e y h h y b y v n a e l l x n h w q 3 3 3 5 ",
"Z Z A A A f Q O.O.Q z J O.O.7.#.J o.-.Q J / 7.$./ Z A D D A z d ",
"S G U G G z Q O.O.O.H ^ y.7.y.6.A R :.7.P L Q R A x J R R G x H ",
"7 0 0 a a a x l l M M M M n n H x z A A z x a M H x x a e g e e ",
"C Z d ' X.X.:.D J t.t.t.t.Q Q &.R R q.:.:.X.Z &.t.7.:.Z Z ' L G ",
"Z g d J J J Q H M / ^ ^ ^ H J J c J / E E J v J J J J n a H x z ",
"- 0 8 q e > a x n x e 9 H H H H M x J H k n n x n 3 i a a e q 4 ",
"3 f C S Z 3 D R ' ' z z 8.0.0.0.U I  .U U &.&.{ O.u Z D C z f s ",
"; q i a k 4 a x x x a a M M H H x z A z g x x z x 0 a d a q 3 2 ",
"4 2 2 0 p x g a e g x x x a a a g x g a g x x f p d u 4 5 4 2 2 ",
"B f s B D G U D C o.o.o.o.D Z L L L G C L Y Y G D B C g u u u u ",
"f s 4 u f g n h e H H H H a e v v n l p x Z Z z u i d a q q 4 0 ",
"4 u i q q 3 a a x g q q a a a i = 0 g g d a : e 2 = q 4 4 2 @ o ",
"s V C C Z 0 C D D D p p Z z A Z # Z G G G x 2 a 0 @ g g f p 1 & ",
"2 2 1 2 0 2 0 0 0 0 3 0 u 0 q q 2 a d p d a : 2 2 @ 2 2 1 2 @ & ",
"# #   - 0 u u 0 5 d g f g 0 0 i d u u : 2 a : 0 d f u 4 o 5 2 1 ",
"# - . - 4 0 0 q 2 u 0 p u 4 4 0 q 0 0 : 1 0 1 4 u u u 4 X - - + ",
"O O @ - - - 4 0 4 0 = 3 0 u i d : u s u 4 4 7 0 0 - 1 1 # @ X X ",
"# # % % # @ p g B f : q D G Z Z : g C D g f f s s = 1 4 % # * o ",
"o O o O O O # # $ % = 3 0 u 0 0 - 4 0 0 4 2 4 0 % - * * o o X X "
};
